<svg preserveAspectRatio="none" overflow="visible" style="display: block;" width="100.001" height="91.9998" viewBox="0 0 100.001 91.9998" fill="none" xmlns="http://www.w3.org/2000/svg">
<g id="Group">
<g id="Vector" opacity="0.65" filter="url(#filter0_f_0_355)">
<path d="M67.0006 39C76.9418 39 85.0006 33.6274 85.0006 27C85.0006 20.3726 76.9418 15 67.0006 15C57.0595 15 49.0007 20.3726 49.0007 27C49.0007 33.6274 57.0595 39 67.0006 39Z" fill="white"/>
</g>
<g id="Vector_2" opacity="0.65" filter="url(#filter1_f_0_355)">
<path d="M43 76.9998C58.464 76.9998 71 72.5226 71 66.9998C71 61.4769 58.464 56.9998 43 56.9998C27.536 56.9998 15 61.4769 15 66.9998C15 72.5226 27.536 76.9998 43 76.9998Z" fill="#55BCFF"/>
</g>
</g>
<defs>
<filter id="filter0_f_0_355" x="34.0007" y="0" width="66" height="54" filterUnits="userSpaceOnUse" color-interpolation-filters="sRGB">
<feFlood flood-opacity="0" result="BackgroundImageFix"/>
<feBlend mode="normal" in="SourceGraphic" in2="BackgroundImageFix" result="shape"/>
<feGaussianBlur stdDeviation="7.5" result="effect1_foregroundBlur_0_355"/>
</filter>
<filter id="filter1_f_0_355" x="-4.23854e-07" y="41.9998" width="86" height="50" filterUnits="userSpaceOnUse" color-interpolation-filters="sRGB">
<feFlood flood-opacity="0" result="BackgroundImageFix"/>
<feBlend mode="normal" in="SourceGraphic" in2="BackgroundImageFix" result="shape"/>
<feGaussianBlur stdDeviation="7.5" result="effect1_foregroundBlur_0_355"/>
</filter>
</defs>
</svg>
