<svg preserveAspectRatio="none" overflow="visible" style="display: block;" width="40" height="36.8" viewBox="0 0 40 36.8" fill="none" xmlns="http://www.w3.org/2000/svg">
<g id="Group">
<g id="Vector" opacity="0.65" filter="url(#filter0_f_0_307)">
<path d="M26.8 15.6C30.7765 15.6 34 13.451 34 10.8C34 8.14903 30.7765 6 26.8 6C22.8235 6 19.6 8.14903 19.6 10.8C19.6 13.451 22.8235 15.6 26.8 15.6Z" fill="white"/>
</g>
<g id="Vector_2" opacity="0.65" filter="url(#filter1_f_0_307)">
<path d="M17.2 30.8C23.3856 30.8 28.4 29.0091 28.4 26.8C28.4 24.5909 23.3856 22.8 17.2 22.8C11.0144 22.8 6 24.5909 6 26.8C6 29.0091 11.0144 30.8 17.2 30.8Z" fill="#55BCFF"/>
</g>
</g>
<defs>
<filter id="filter0_f_0_307" x="13.6" y="0" width="26.4" height="21.6" filterUnits="userSpaceOnUse" color-interpolation-filters="sRGB">
<feFlood flood-opacity="0" result="BackgroundImageFix"/>
<feBlend mode="normal" in="SourceGraphic" in2="BackgroundImageFix" result="shape"/>
<feGaussianBlur stdDeviation="3" result="effect1_foregroundBlur_0_307"/>
</filter>
<filter id="filter1_f_0_307" x="1.90735e-07" y="16.8" width="34.4" height="20" filterUnits="userSpaceOnUse" color-interpolation-filters="sRGB">
<feFlood flood-opacity="0" result="BackgroundImageFix"/>
<feBlend mode="normal" in="SourceGraphic" in2="BackgroundImageFix" result="shape"/>
<feGaussianBlur stdDeviation="3" result="effect1_foregroundBlur_0_307"/>
</filter>
</defs>
</svg>
